@startuml
'https://plantuml.com/sequence-diagram

class Containers {
-x
-y
-z
-containerNumber
-checkDigit
-isoCode
-payLoad
-tare
-gross
-weight
}

class CargoManifest {
-listOfContainers
-ratio
-date
-mmsiCode
-id
-numberOfContainers
-destination
}


class Ports {
-identification
-name
}

class Ship {
-mmsiCode
-imoCode
-numberEnergyGenerators
-generatorPower
-callSign
-draft
-name
-vesselTypeId
-length
-width
-capacity
}

CargoManifest "*" -- "1" Ports : delivered at >
Containers "1..*"--"1..*" CargoManifest: related to >
Containers "0..*"--"1" Ports: store >
Ship "0..*"--"1" Ports: dock >

@enduml